<svg version="1.1" xmlns="http://www.w3.org/2000/svg" style="display: block;" viewBox="0 0 2048 2048" width="1024" height="1024" preserveAspectRatio="none" xmlns:c2pa="http://c2pa.org/manifest"><metadata><c2pa:manifest>AAAMZ2p1bWIAAAAeanVtZGMycGEAEQAQgAAAqgA4m3EDYzJwYQAAAAxBanVtYgAAAEdqdW1kYzJtYQARABCAAACqADibcQN1cm46YzJwYTplZWI3NzAxMC04OGM4LTRlMWUtODhkOS1mMjMwMmM3ZGQ2ZDEAAAAB4mp1bWIAAAApanVtZGMyYXMAEQAQgAAAqgA4m3EDYzJwYS5hc3NlcnRpb25zAAAAAO1qdW1iAAAAQWp1bWRjYm9yABEAEIAAAKoAOJtxE2MycGEuYWN0aW9ucy52MgAAAAAYYzJzaPTnCk4OslusQ+OrJ/xNvJsAAACkY2JvcqFnYWN0aW9uc4GjZmFjdGlvbmxjMnBhLmNyZWF0ZWRxZGlnaXRhbFNvdXJjZVR5cGV4Rmh0dHA6Ly9jdi5pcHRjLm9yZy9uZXdzY29kZXMvZGlnaXRhbHNvdXJjZXR5cGUvdHJhaW5lZEFsZ29yaXRobWljTWVkaWFrZGVzY3JpcHRpb252Q3JlYXRlZCBieSBSZWNyYWZ0IEFJLgAAAMRqdW1iAAAAQGp1bWRjYm9yABEAEIAAAKoAOJtxE2MycGEuaGFzaC5kYXRhAAAAABhjMnNoK58x61w1PGEw0UAcmi6ZGwAAAHxjYm9ypWpleGNsdXNpb25zgaJlc3RhcnQY22ZsZW5ndGgZEIxkbmFtZW5qdW1iZiBtYW5pZmVzdGNhbGdmc2hhMjU2ZGhhc2hYIO27uOQOrhrBqypav3UKGPmO73mm0Q5obw7zdugneyHCY3BhZEkAAAAAAAAAAAAAAAI0anVtYgAAACdqdW1kYzJjbAARABCAAACqADibcQNjMnBhLmNsYWltLnYyAAAAAgVjYm9ypmppbnN0YW5jZUlEeCx4bXA6aWlkOmJmZmQ4YzAwLWYxNmYtNGMwNS1iODI2LTNlNzczNzc1Y2IzZnRjbGFpbV9nZW5lcmF0b3JfaW5mb6NkbmFtZWpyZWNyYWZ0LmFpZ3ZlcnNpb254KDgxY2U4MmUyYzVjM2NiZmJlOGM2ZmJlMTc5ZDVmOGQ5MWM0MDljZTF3b3JnLmNvbnRlbnRhdXRoLmMycGFfcnNmMC45MC43aXNpZ25hdHVyZXhNc2VsZiNqdW1iZj0vYzJwYS91cm46YzJwYTplZWI3NzAxMC04OGM4LTRlMWUtODhkOS1mMjMwMmM3ZGQ2ZDEvYzJwYS5zaWduYXR1cmVyY3JlYXRlZF9hc3NlcnRpb25zgqJjdXJseCpzZWxmI2p1bWJmPWMycGEuYXNzZXJ0aW9ucy9jMnBhLmFjdGlvbnMudjJkaGFzaFgg0KjlXrXscpauEMF6vfPHu+mZopyTiEpkJzMkv6MI4UiiY3VybHgpc2VsZiNqdW1iZj1jMnBhLmFzc2VydGlvbnMvYzJwYS5oYXNoLmRhdGFkaGFzaFgg5JJD83q7JC5H7WoYd2lvEWuQDSTDujPGLY39Mm0RoihoZGM6dGl0bGV4GlJlY3JhZnQgQUkgR2VuZXJhdGVkIEltYWdlY2FsZ2ZzaGEyNTYAAAfcanVtYgAAAChqdW1kYzJjcwARABCAAACqADibcQNjMnBhLnNpZ25hdHVyZQAAAAesY2JvctKEWQOwogEmGCGCWQHnMIIB4zCCAYmgAwIBAgIJALfeWmNDUW56MAoGCCqGSM49BAMCMEAxHzAdBgNVBAMMFlJlY3JhZnQgU3RhZ2luZyBEZXYgQ0ExEDAOBgNVBAoMB1JlY3JhZnQxCzAJBgNVBAYTAlVTMB4XDTI2MDYxMjE5NDM1MFoXDTI3MDYxMjE5NDM1MFowNzELMAkGA1UEBhMCVVMxEzARBgNVBAoTClJlY3JhZnQgQUkxEzARBgNVBAMTCnJlY3JhZnQuYWkwWTATBgcqhkjOPQIBBggqhkjOPQMBBwNCAARKaTVbACsg/DeG3LeOxYdID/VA6EFG73E6Oknb+KIiCFJygRUz4ueN2z/t2qYb6CIUvS8RvgOiiClfoqsYtw81o3UwczAMBgNVHRMBAf8EAjAAMA4GA1UdDwEB/wQEAwIGwDATBgNVHSUEDDAKBggrBgEFBQcDBDAdBgNVHQ4EFgQULzHpBen96SL1y4IPHa8MkMshXf0wHwYDVR0jBBgwFoAUAgsqOBrKqpdK//m/kxZo7ZR4ebcwCgYIKoZIzj0EAwIDSAAwRQIgU8hKW0aXvvk8SQgVFNkax69Ym9ae8GsT2RZTQw+B51ACIQC0D4BkEoRD4N0r2ZRkNy0HZaW3WICy/QZGN95ilF4yzFkBvTCCAbkwggFfoAMCAQICCQCc+Wg7T6ATbzAKBggqhkjOPQQDAjBAMR8wHQYDVQQDDBZSZWNyYWZ0IFN0YWdpbmcgRGV2IENBMRAwDgYDVQQKDAdSZWNyYWZ0MQswCQYDVQQGEwJVUzAeFw0yNjA2MTIxOTQwMTZaFw0yODA2MTExOTQwMTZaMEAxHzAdBgNVBAMMFlJlY3JhZnQgU3RhZ2luZyBEZXYgQ0ExEDAOBgNVBAoMB1JlY3JhZnQxCzAJBgNVBAYTAlVTMFkwEwYHKoZIzj0CAQYIKoZIzj0DAQcDQgAEQ9IQBlcVbKaKPYrQSfOhL/00s7xUDC7RinIuLO/I1k99y9yh6oWF9kPxaP+tx1v1PeOL3yrVquJ730H0ZGiDyqNCMEAwDwYDVR0TAQH/BAUwAwEB/zAOBgNVHQ8BAf8EBAMCAYYwHQYDVR0OBBYEFAILKjgayqqXSv/5v5MWaO2UeHm3MAoGCCqGSM49BAMCA0gAMEUCIFQwNImLlYDeQhjgF+ZiqTbgcuzSqmOJw3Q2lQ/hu83FAiEA9O8cLm/xfoVLqB4jtdbuHzi3WL+p2RN+DRGkwpYswVuhY3BhZFkDpAAAAAAAAAAAAAAAAAAAAAAAAAAAAAAAAAAAAAAAAAAAAAAAAAAAAAAAAAAAAAAAAAAAAAAAAAAAAAAAAAAAAAAAAAAAAAAAAAAAAAAAAAAAAAAAAAAAAAAAAAAAAAAAAAAAAAAAAAAAAAAAAAAAAAAAAAAAAAAAAAAAAAAAAAAAAAAAAAAAAAAAAAAAAAAAAAAAAAAAAAAAAAAAAAAAAAAAAAAAAAAAAAAAAAAAAAAAAAAAAAAAAAAAAAAAAAAAAAAAAAAAAAAAAAAAAAAAAAAAAAAAAAAAAAAAAAAAAAAAAAAAAAAAAAAAAAAAAAAAAAAAAAAAAAAAAAAAAAAAAAAAAAAAAAAAAAAAAAAAAAAAAAAAAAAAAAAAAAAAAAAAAAAAAAAAAAAAAAAAAAAAAAAAAAAAAAAAAAAAAAAAAAAAAAAAAAAAAAAAAAAAAAAAAAAAAAAAAAAAAAAAAAAAAAAAAAAAAAAAAAAAAAAAAAAAAAAAAAAAAAAAAAAAAAAAAAAAAAAAAAAAAAAAAAAAAAAAAAAAAAAAAAAAAAAAAAAAAAAAAAAAAAAAAAAAAAAAAAAAAAAAAAAAAAAAAAAAAAAAAAAAAAAAAAAAAAAAAAAAAAAAAAAAAAAAAAAAAAAAAAAAAAAAAAAAAAAAAAAAAAAAAAAAAAAAAAAAAAAAAAAAAAAAAAAAAAAAAAAAAAAAAAAAAAAAAAAAAAAAAAAAAAAAAAAAAAAAAAAAAAAAAAAAAAAAAAAAAAAAAAAAAAAAAAAAAAAAAAAAAAAAAAAAAAAAAAAAAAAAAAAAAAAAAAAAAAAAAAAAAAAAAAAAAAAAAAAAAAAAAAAAAAAAAAAAAAAAAAAAAAAAAAAAAAAAAAAAAAAAAAAAAAAAAAAAAAAAAAAAAAAAAAAAAAAAAAAAAAAAAAAAAAAAAAAAAAAAAAAAAAAAAAAAAAAAAAAAAAAAAAAAAAAAAAAAAAAAAAAAAAAAAAAAAAAAAAAAAAAAAAAAAAAAAAAAAAAAAAAAAAAAAAAAAAAAAAAAAAAAAAAAAAAAAAAAAAAAAAAAAAAAAAAAAAAAAAAAAAAAAAAAAAAAAAAAAAAAAAAAAAAAAAAAAAAAAAAAAAAAAAAAAAAAAAAAAAAAAAAAAAAAAAAAAAAAAAAAAAAAAAAAAAAAAAAAAAAAAAAAAAAAAAAAAAAAAAAAAAAAAAAAAAAAAAAAAAAAAAAAAAAAAAAAAAAAAAAAAAAAAAAA9lhA2b+IKrZKVvwKNIeN1sar4QuwFx15Zn+K9nompZoDaQXoJfCgR0EQYV6yyL2riZ2Ir0bCoo3QU0eyA2JD6dhZ9Q==</c2pa:manifest></metadata>
<path transform="translate(0,0)" fill="rgb(23,21,18)" d="M 0 0 L 2048 0 L 2048 2048 L 0 2048 L 0 0 z"/>
<path transform="translate(0,0)" fill="rgb(242,169,59)" d="M 812.676 576.14 L 1235.13 576.422 C 1246.33 587.982 1257.66 599.432 1269.09 610.771 C 1277.64 619.196 1289.01 629.715 1296.44 638.654 C 1312.61 655.4 1537.29 886.139 1538.33 889.821 L 1537.94 890.282 C 1521.85 906.722 1505.33 926.016 1489.87 943.293 L 1403.09 1040.82 L 1148.17 1327.58 L 1072.32 1413.7 C 1061.5 1426.14 1050.48 1438.4 1039.27 1450.49 C 1036.27 1453.75 1029.15 1462.09 1026.27 1464.72 L 1025.35 1465.95 C 1022.62 1465.64 1022.83 1464.71 1020.43 1461.75 C 1003.02 1444.39 982.201 1418.63 965.458 1399.8 L 859.096 1280.96 L 509.902 890.129 C 511.641 884.437 732.392 656.356 752.023 638.771 C 770.985 618.809 792.969 595.175 812.676 576.14 z"/>
<path transform="translate(0,0)" fill="rgb(237,233,225)" d="M 812.676 576.14 L 1235.13 576.422 C 1246.33 587.982 1257.66 599.432 1269.09 610.771 C 1277.64 619.196 1289.01 629.715 1296.44 638.654 C 1312.61 655.4 1537.29 886.139 1538.33 889.821 L 1537.94 890.282 C 1524.58 888.521 1485.79 890.096 1469.83 889.745 C 1412.43 888.482 1353.01 891 1295.75 889.833 C 1254.45 888.889 1211.88 889.413 1170.48 889.452 C 1105.4 889.209 1040.32 889.302 975.251 889.732 C 903.05 889.942 824.634 887.571 753.031 889.795 C 777.206 836.246 804.947 779.554 831.06 726.694 C 840.349 708.132 849.524 689.513 858.582 670.837 C 863.187 661.378 869.808 648.66 873.229 638.978 C 833.3 638.14 792.247 639.401 752.023 638.771 C 770.985 618.809 792.969 595.175 812.676 576.14 z"/>
<path transform="translate(0,0)" fill="rgb(242,169,59)" d="M 1296.44 638.654 C 1312.61 655.4 1537.29 886.139 1538.33 889.821 L 1537.94 890.282 C 1524.58 888.521 1485.79 890.096 1469.83 889.745 C 1412.43 888.482 1353.01 891 1295.75 889.833 C 1287.02 869.669 1274.82 845.897 1265.16 825.549 L 1204.14 696.314 C 1200.19 687.894 1179.07 644.816 1177.83 639.227 C 1214.73 639.215 1260.19 640.333 1296.44 638.654 z"/>
<path transform="translate(0,0)" fill="rgb(16,254,253)" d="M 812.676 576.14 L 1235.13 576.422 C 1246.33 587.982 1257.66 599.432 1269.09 610.771 C 1277.64 619.196 1289.01 629.715 1296.44 638.654 C 1260.19 640.333 1214.73 639.215 1177.83 639.227 C 1147.95 637.621 1101.04 639.309 1070.18 639.446 C 1004.53 639.877 938.876 639.721 873.229 638.978 C 833.3 638.14 792.247 639.401 752.023 638.771 C 770.985 618.809 792.969 595.175 812.676 576.14 z"/>
<path transform="translate(0,0)" fill="rgb(237,233,225)" d="M 509.902 890.129 C 588.36 888.63 674.118 889.153 752.676 889.995 L 968.218 1347.27 C 977.637 1367.74 987.189 1388.76 996.725 1409.09 C 1001.06 1418.33 1018.71 1453.04 1020.43 1461.75 C 1003.02 1444.39 982.201 1418.63 965.458 1399.8 L 859.096 1280.96 L 509.902 890.129 z"/>
<path transform="translate(0,0)" fill="rgb(237,233,225)" d="M 1295.75 889.833 C 1353.01 891 1412.43 888.482 1469.83 889.745 C 1485.79 890.096 1524.58 888.521 1537.94 890.282 C 1521.85 906.722 1505.33 926.016 1489.87 943.293 L 1403.09 1040.82 L 1148.17 1327.58 L 1072.32 1413.7 C 1061.5 1426.14 1050.48 1438.4 1039.27 1450.49 C 1036.27 1453.75 1029.15 1462.09 1026.27 1464.72 C 1029.43 1456.04 1042.56 1429.09 1046.8 1419.81 C 1064.31 1381.84 1082.09 1343.99 1100.14 1306.27 L 1217.73 1057.77 C 1242.49 1005.69 1274.62 942.377 1295.75 889.833 z"/>
</svg>