<svg version="1.1" xmlns="http://www.w3.org/2000/svg" style="display: block;" viewBox="0 0 2048 2048" width="1024" height="1024" preserveAspectRatio="none" xmlns:c2pa="http://c2pa.org/manifest"><metadata><c2pa:manifest>AAAMZ2p1bWIAAAAeanVtZGMycGEAEQAQgAAAqgA4m3EDYzJwYQAAAAxBanVtYgAAAEdqdW1kYzJtYQARABCAAACqADibcQN1cm46YzJwYTozYjYxYmYyMi1jN2JlLTRiMTItYmNhNS00YTFlZTkxYWNmODUAAAAB4mp1bWIAAAApanVtZGMyYXMAEQAQgAAAqgA4m3EDYzJwYS5hc3NlcnRpb25zAAAAAO1qdW1iAAAAQWp1bWRjYm9yABEAEIAAAKoAOJtxE2MycGEuYWN0aW9ucy52MgAAAAAYYzJzaEvYj4FyFEFzHEK/Da98VTgAAACkY2JvcqFnYWN0aW9uc4GjZmFjdGlvbmxjMnBhLmNyZWF0ZWRxZGlnaXRhbFNvdXJjZVR5cGV4Rmh0dHA6Ly9jdi5pcHRjLm9yZy9uZXdzY29kZXMvZGlnaXRhbHNvdXJjZXR5cGUvdHJhaW5lZEFsZ29yaXRobWljTWVkaWFrZGVzY3JpcHRpb252Q3JlYXRlZCBieSBSZWNyYWZ0IEFJLgAAAMRqdW1iAAAAQGp1bWRjYm9yABEAEIAAAKoAOJtxE2MycGEuaGFzaC5kYXRhAAAAABhjMnNopNy9IXvi8F/DUcndJE3UswAAAHxjYm9ypWpleGNsdXNpb25zgaJlc3RhcnQY22ZsZW5ndGgZEIxkbmFtZW5qdW1iZiBtYW5pZmVzdGNhbGdmc2hhMjU2ZGhhc2hYIL7IbqZV3VyplRdj29QDBY9kNC8Kb2fjg/NrhzFcW2vlY3BhZEkAAAAAAAAAAAAAAAI0anVtYgAAACdqdW1kYzJjbAARABCAAACqADibcQNjMnBhLmNsYWltLnYyAAAAAgVjYm9ypmppbnN0YW5jZUlEeCx4bXA6aWlkOjc3ZjRmYTY4LTZiMzUtNDdjYi04ZDU2LThiOGM0MjkwYjgzY3RjbGFpbV9nZW5lcmF0b3JfaW5mb6NkbmFtZWpyZWNyYWZ0LmFpZ3ZlcnNpb254KDgxY2U4MmUyYzVjM2NiZmJlOGM2ZmJlMTc5ZDVmOGQ5MWM0MDljZTF3b3JnLmNvbnRlbnRhdXRoLmMycGFfcnNmMC45MC43aXNpZ25hdHVyZXhNc2VsZiNqdW1iZj0vYzJwYS91cm46YzJwYTozYjYxYmYyMi1jN2JlLTRiMTItYmNhNS00YTFlZTkxYWNmODUvYzJwYS5zaWduYXR1cmVyY3JlYXRlZF9hc3NlcnRpb25zgqJjdXJseCpzZWxmI2p1bWJmPWMycGEuYXNzZXJ0aW9ucy9jMnBhLmFjdGlvbnMudjJkaGFzaFgg4Z1rGIq5OrvinffltnQNtpEUNsG/hPmaEcdIKVtqaB6iY3VybHgpc2VsZiNqdW1iZj1jMnBhLmFzc2VydGlvbnMvYzJwYS5oYXNoLmRhdGFkaGFzaFggmb9ImORwE90OUsHXnKjxiAZcwB21LXDtFJkG6blHrmFoZGM6dGl0bGV4GlJlY3JhZnQgQUkgR2VuZXJhdGVkIEltYWdlY2FsZ2ZzaGEyNTYAAAfcanVtYgAAAChqdW1kYzJjcwARABCAAACqADibcQNjMnBhLnNpZ25hdHVyZQAAAAesY2JvctKEWQOwogEmGCGCWQHnMIIB4zCCAYmgAwIBAgIJALfeWmNDUW56MAoGCCqGSM49BAMCMEAxHzAdBgNVBAMMFlJlY3JhZnQgU3RhZ2luZyBEZXYgQ0ExEDAOBgNVBAoMB1JlY3JhZnQxCzAJBgNVBAYTAlVTMB4XDTI2MDYxMjE5NDM1MFoXDTI3MDYxMjE5NDM1MFowNzELMAkGA1UEBhMCVVMxEzARBgNVBAoTClJlY3JhZnQgQUkxEzARBgNVBAMTCnJlY3JhZnQuYWkwWTATBgcqhkjOPQIBBggqhkjOPQMBBwNCAARKaTVbACsg/DeG3LeOxYdID/VA6EFG73E6Oknb+KIiCFJygRUz4ueN2z/t2qYb6CIUvS8RvgOiiClfoqsYtw81o3UwczAMBgNVHRMBAf8EAjAAMA4GA1UdDwEB/wQEAwIGwDATBgNVHSUEDDAKBggrBgEFBQcDBDAdBgNVHQ4EFgQULzHpBen96SL1y4IPHa8MkMshXf0wHwYDVR0jBBgwFoAUAgsqOBrKqpdK//m/kxZo7ZR4ebcwCgYIKoZIzj0EAwIDSAAwRQIgU8hKW0aXvvk8SQgVFNkax69Ym9ae8GsT2RZTQw+B51ACIQC0D4BkEoRD4N0r2ZRkNy0HZaW3WICy/QZGN95ilF4yzFkBvTCCAbkwggFfoAMCAQICCQCc+Wg7T6ATbzAKBggqhkjOPQQDAjBAMR8wHQYDVQQDDBZSZWNyYWZ0IFN0YWdpbmcgRGV2IENBMRAwDgYDVQQKDAdSZWNyYWZ0MQswCQYDVQQGEwJVUzAeFw0yNjA2MTIxOTQwMTZaFw0yODA2MTExOTQwMTZaMEAxHzAdBgNVBAMMFlJlY3JhZnQgU3RhZ2luZyBEZXYgQ0ExEDAOBgNVBAoMB1JlY3JhZnQxCzAJBgNVBAYTAlVTMFkwEwYHKoZIzj0CAQYIKoZIzj0DAQcDQgAEQ9IQBlcVbKaKPYrQSfOhL/00s7xUDC7RinIuLO/I1k99y9yh6oWF9kPxaP+tx1v1PeOL3yrVquJ730H0ZGiDyqNCMEAwDwYDVR0TAQH/BAUwAwEB/zAOBgNVHQ8BAf8EBAMCAYYwHQYDVR0OBBYEFAILKjgayqqXSv/5v5MWaO2UeHm3MAoGCCqGSM49BAMCA0gAMEUCIFQwNImLlYDeQhjgF+ZiqTbgcuzSqmOJw3Q2lQ/hu83FAiEA9O8cLm/xfoVLqB4jtdbuHzi3WL+p2RN+DRGkwpYswVuhY3BhZFkDpAAAAAAAAAAAAAAAAAAAAAAAAAAAAAAAAAAAAAAAAAAAAAAAAAAAAAAAAAAAAAAAAAAAAAAAAAAAAAAAAAAAAAAAAAAAAAAAAAAAAAAAAAAAAAAAAAAAAAAAAAAAAAAAAAAAAAAAAAAAAAAAAAAAAAAAAAAAAAAAAAAAAAAAAAAAAAAAAAAAAAAAAAAAAAAAAAAAAAAAAAAAAAAAAAAAAAAAAAAAAAAAAAAAAAAAAAAAAAAAAAAAAAAAAAAAAAAAAAAAAAAAAAAAAAAAAAAAAAAAAAAAAAAAAAAAAAAAAAAAAAAAAAAAAAAAAAAAAAAAAAAAAAAAAAAAAAAAAAAAAAAAAAAAAAAAAAAAAAAAAAAAAAAAAAAAAAAAAAAAAAAAAAAAAAAAAAAAAAAAAAAAAAAAAAAAAAAAAAAAAAAAAAAAAAAAAAAAAAAAAAAAAAAAAAAAAAAAAAAAAAAAAAAAAAAAAAAAAAAAAAAAAAAAAAAAAAAAAAAAAAAAAAAAAAAAAAAAAAAAAAAAAAAAAAAAAAAAAAAAAAAAAAAAAAAAAAAAAAAAAAAAAAAAAAAAAAAAAAAAAAAAAAAAAAAAAAAAAAAAAAAAAAAAAAAAAAAAAAAAAAAAAAAAAAAAAAAAAAAAAAAAAAAAAAAAAAAAAAAAAAAAAAAAAAAAAAAAAAAAAAAAAAAAAAAAAAAAAAAAAAAAAAAAAAAAAAAAAAAAAAAAAAAAAAAAAAAAAAAAAAAAAAAAAAAAAAAAAAAAAAAAAAAAAAAAAAAAAAAAAAAAAAAAAAAAAAAAAAAAAAAAAAAAAAAAAAAAAAAAAAAAAAAAAAAAAAAAAAAAAAAAAAAAAAAAAAAAAAAAAAAAAAAAAAAAAAAAAAAAAAAAAAAAAAAAAAAAAAAAAAAAAAAAAAAAAAAAAAAAAAAAAAAAAAAAAAAAAAAAAAAAAAAAAAAAAAAAAAAAAAAAAAAAAAAAAAAAAAAAAAAAAAAAAAAAAAAAAAAAAAAAAAAAAAAAAAAAAAAAAAAAAAAAAAAAAAAAAAAAAAAAAAAAAAAAAAAAAAAAAAAAAAAAAAAAAAAAAAAAAAAAAAAAAAAAAAAAAAAAAAAAAAAAAAAAAAAAAAAAAAAAAAAAAAAAAAAAAAAAAAAAAAAAAAAAAAAAAAAAAAAAAAAAAAAAAAAAAAAAAAAAAAAAAAAAAAAAAAAAAAAAAAAAAAAAAAAAAAAAAAAAAAAAAAAAAAAAAAAAAAAA9lhA6J3fWbP9/FnOMXW84/nZLDUrEEAC43+t9B1B8DHfGNWkwXpNxLmOuUFOOzMfFYi+cssq6FPbx42+ewB8LJgAGQ==</c2pa:manifest></metadata>
<path transform="translate(0,0)" fill="rgb(23,21,18)" d="M 0 0 L 2048 0 L 2048 2048 L 0 2048 L 0 0 z"/>
<path transform="translate(0,0)" fill="rgb(237,233,225)" d="M 1283.98 970.608 C 1291.45 973.359 1299 977.42 1306.39 980.578 C 1345.95 997.483 1385.49 1016.1 1425.67 1031.35 L 1425.68 1296.91 C 1399.03 1310.02 1369.39 1322.89 1342.15 1335.36 L 1186.02 1406.85 L 1006.97 1323.04 L 950.991 1297.2 L 951.05 1031.76 C 981.519 1019.81 1017.75 1003.39 1048.36 990.103 C 1065.45 999.954 1084.4 1012.28 1101.76 1022.62 C 1088.66 1028.11 1075.63 1033.8 1062.7 1039.69 C 1105.56 1058.42 1148.55 1076.87 1191.66 1095.03 C 1231.75 1076.09 1274.2 1059.78 1315.02 1040.03 C 1307.99 1036.56 1296.63 1032.35 1289.1 1029.29 C 1287.2 1009.75 1285.49 990.187 1283.98 970.608 z"/>
<path transform="translate(0,0)" fill="rgb(23,21,18)" d="M 1365.34 1081.96 L 1366.73 1082.93 C 1365.53 1139.8 1366.4 1200.52 1366.83 1257.58 C 1318.32 1278.98 1268.98 1302.86 1220.44 1325.01 L 1218.72 1325.42 C 1216.58 1321.64 1217.95 1166.23 1217.94 1147.64 C 1265.76 1127.87 1317.44 1103.24 1365.34 1081.96 z"/>
<path transform="translate(0,0)" fill="rgb(23,21,18)" d="M 1010.83 1082.1 C 1026.46 1088.33 1045.6 1097.57 1061.26 1104.6 L 1158.95 1148.49 L 1158.77 1326.05 C 1149.12 1323.13 1125.87 1311.3 1115.84 1306.79 C 1080.9 1291.09 1045.73 1272.66 1010.67 1257.41 C 1009.81 1234.3 1010.45 1208.52 1010.58 1185.33 L 1010.83 1082.1 z"/>
<path transform="translate(0,0)" fill="rgb(242,169,59)" d="M 781.716 640.564 C 790.733 639.965 833.577 638.653 839.908 640.989 C 880.816 656.084 934.184 687.553 971.71 706.735 C 978.106 696.714 984.428 686.004 990.634 675.811 C 1027.04 699.779 1065.52 725.885 1102.12 748.88 C 1098.54 756.636 1088.25 773.359 1083.6 781.399 C 1123.68 808.474 1163.35 839.323 1203.14 867.345 L 1220.44 1021.01 L 1087.51 945.27 C 1064.95 931.818 1042.03 918.984 1018.78 906.781 C 1002.18 934.851 992.074 930.336 967.456 913.942 C 944.618 898.734 921.319 883.727 898.68 868.193 C 892.966 864.272 888.54 860.769 887.109 853.76 C 883.831 841.149 887.422 834.595 894.884 824.994 C 876.365 811.337 853.355 799.497 833.179 788.305 C 743.345 738.471 652.839 705.769 552.002 686.056 C 566.254 680.08 583.841 674.863 598.678 670.531 C 658.184 652.869 719.684 642.8 781.716 640.564 z"/>
<path transform="translate(0,0)" fill="rgb(242,169,59)" d="M 873.35 893.549 C 901.416 908.961 929.395 927.286 957.353 943.517 C 933.812 978.165 910.549 1013 887.567 1048.02 L 760.999 1237.06 L 687.258 1346.76 C 674.874 1365.15 658.527 1387.68 647.67 1406.43 L 636.448 1399.93 C 605.8 1381.45 574.516 1359.85 543.718 1340.74 C 550.674 1328.99 567.945 1306.73 576.541 1294.98 C 601.216 1261.32 626.091 1227.8 651.164 1194.43 L 873.35 893.549 z"/>
<path transform="translate(0,0)" fill="rgb(69,196,219)" d="M 1427.96 778.744 C 1453.06 798.862 1478.51 817.579 1504 837.138 C 1489.69 845.049 1472.97 851.72 1457.93 858.367 L 1389.71 889 C 1371.69 897.313 1352.82 906.579 1334.53 913.979 C 1337.98 908.439 1341.58 903 1345.4 897.706 C 1373.55 858.709 1398.94 817.068 1427.96 778.744 z"/>
<path transform="translate(0,0)" fill="rgb(69,196,219)" d="M 1292.9 707.804 C 1317.92 710.209 1355.74 716.349 1381.23 720.276 C 1376.49 729.915 1368.64 742.35 1363.12 751.831 L 1328.88 810.59 C 1318.71 828.136 1309.64 846.003 1299.22 863.459 C 1297.01 838.424 1296.3 812.617 1295.36 787.459 C 1294.38 761.065 1292.99 734.156 1292.9 707.804 z"/>
</svg>