<svg version="1.1" xmlns="http://www.w3.org/2000/svg" style="display: block;" viewBox="0 0 2048 2048" width="1024" height="1024" preserveAspectRatio="none" xmlns:c2pa="http://c2pa.org/manifest"><metadata><c2pa:manifest>AAAMZ2p1bWIAAAAeanVtZGMycGEAEQAQgAAAqgA4m3EDYzJwYQAAAAxBanVtYgAAAEdqdW1kYzJtYQARABCAAACqADibcQN1cm46YzJwYTo3NmJhZDY2Ny1kNGVkLTRlYzEtOGM1Ni05ZWMyZDhmNjdjODIAAAAB4mp1bWIAAAApanVtZGMyYXMAEQAQgAAAqgA4m3EDYzJwYS5hc3NlcnRpb25zAAAAAO1qdW1iAAAAQWp1bWRjYm9yABEAEIAAAKoAOJtxE2MycGEuYWN0aW9ucy52MgAAAAAYYzJzaK6UOUg+/jIbA8qao0Qxcn0AAACkY2JvcqFnYWN0aW9uc4GjZmFjdGlvbmxjMnBhLmNyZWF0ZWRxZGlnaXRhbFNvdXJjZVR5cGV4Rmh0dHA6Ly9jdi5pcHRjLm9yZy9uZXdzY29kZXMvZGlnaXRhbHNvdXJjZXR5cGUvdHJhaW5lZEFsZ29yaXRobWljTWVkaWFrZGVzY3JpcHRpb252Q3JlYXRlZCBieSBSZWNyYWZ0IEFJLgAAAMRqdW1iAAAAQGp1bWRjYm9yABEAEIAAAKoAOJtxE2MycGEuaGFzaC5kYXRhAAAAABhjMnNoDDHRnQRZ/+WK32hYNbgLfQAAAHxjYm9ypWpleGNsdXNpb25zgaJlc3RhcnQY22ZsZW5ndGgZEIxkbmFtZW5qdW1iZiBtYW5pZmVzdGNhbGdmc2hhMjU2ZGhhc2hYIJ6y/3vBnkvWtPLWINh2AvtA3ABMw8EvYCUD3ljxs4gzY3BhZEkAAAAAAAAAAAAAAAI0anVtYgAAACdqdW1kYzJjbAARABCAAACqADibcQNjMnBhLmNsYWltLnYyAAAAAgVjYm9ypmppbnN0YW5jZUlEeCx4bXA6aWlkOjBjYWRkZmE2LTg0MjUtNDFiNy1iMzZmLTRkYTBhOTY0NzM5N3RjbGFpbV9nZW5lcmF0b3JfaW5mb6NkbmFtZWpyZWNyYWZ0LmFpZ3ZlcnNpb254KDgxY2U4MmUyYzVjM2NiZmJlOGM2ZmJlMTc5ZDVmOGQ5MWM0MDljZTF3b3JnLmNvbnRlbnRhdXRoLmMycGFfcnNmMC45MC43aXNpZ25hdHVyZXhNc2VsZiNqdW1iZj0vYzJwYS91cm46YzJwYTo3NmJhZDY2Ny1kNGVkLTRlYzEtOGM1Ni05ZWMyZDhmNjdjODIvYzJwYS5zaWduYXR1cmVyY3JlYXRlZF9hc3NlcnRpb25zgqJjdXJseCpzZWxmI2p1bWJmPWMycGEuYXNzZXJ0aW9ucy9jMnBhLmFjdGlvbnMudjJkaGFzaFgg/Me/zMoM8Xx9aTdDL4667AppmAGXxX7Uxq7cUSZ7kFWiY3VybHgpc2VsZiNqdW1iZj1jMnBhLmFzc2VydGlvbnMvYzJwYS5oYXNoLmRhdGFkaGFzaFggB2CHI60c3guyCfUTu+/E8U+fxtQNiWG0eA4F+vB8JX1oZGM6dGl0bGV4GlJlY3JhZnQgQUkgR2VuZXJhdGVkIEltYWdlY2FsZ2ZzaGEyNTYAAAfcanVtYgAAAChqdW1kYzJjcwARABCAAACqADibcQNjMnBhLnNpZ25hdHVyZQAAAAesY2JvctKEWQOwogEmGCGCWQHnMIIB4zCCAYmgAwIBAgIJALfeWmNDUW56MAoGCCqGSM49BAMCMEAxHzAdBgNVBAMMFlJlY3JhZnQgU3RhZ2luZyBEZXYgQ0ExEDAOBgNVBAoMB1JlY3JhZnQxCzAJBgNVBAYTAlVTMB4XDTI2MDYxMjE5NDM1MFoXDTI3MDYxMjE5NDM1MFowNzELMAkGA1UEBhMCVVMxEzARBgNVBAoTClJlY3JhZnQgQUkxEzARBgNVBAMTCnJlY3JhZnQuYWkwWTATBgcqhkjOPQIBBggqhkjOPQMBBwNCAARKaTVbACsg/DeG3LeOxYdID/VA6EFG73E6Oknb+KIiCFJygRUz4ueN2z/t2qYb6CIUvS8RvgOiiClfoqsYtw81o3UwczAMBgNVHRMBAf8EAjAAMA4GA1UdDwEB/wQEAwIGwDATBgNVHSUEDDAKBggrBgEFBQcDBDAdBgNVHQ4EFgQULzHpBen96SL1y4IPHa8MkMshXf0wHwYDVR0jBBgwFoAUAgsqOBrKqpdK//m/kxZo7ZR4ebcwCgYIKoZIzj0EAwIDSAAwRQIgU8hKW0aXvvk8SQgVFNkax69Ym9ae8GsT2RZTQw+B51ACIQC0D4BkEoRD4N0r2ZRkNy0HZaW3WICy/QZGN95ilF4yzFkBvTCCAbkwggFfoAMCAQICCQCc+Wg7T6ATbzAKBggqhkjOPQQDAjBAMR8wHQYDVQQDDBZSZWNyYWZ0IFN0YWdpbmcgRGV2IENBMRAwDgYDVQQKDAdSZWNyYWZ0MQswCQYDVQQGEwJVUzAeFw0yNjA2MTIxOTQwMTZaFw0yODA2MTExOTQwMTZaMEAxHzAdBgNVBAMMFlJlY3JhZnQgU3RhZ2luZyBEZXYgQ0ExEDAOBgNVBAoMB1JlY3JhZnQxCzAJBgNVBAYTAlVTMFkwEwYHKoZIzj0CAQYIKoZIzj0DAQcDQgAEQ9IQBlcVbKaKPYrQSfOhL/00s7xUDC7RinIuLO/I1k99y9yh6oWF9kPxaP+tx1v1PeOL3yrVquJ730H0ZGiDyqNCMEAwDwYDVR0TAQH/BAUwAwEB/zAOBgNVHQ8BAf8EBAMCAYYwHQYDVR0OBBYEFAILKjgayqqXSv/5v5MWaO2UeHm3MAoGCCqGSM49BAMCA0gAMEUCIFQwNImLlYDeQhjgF+ZiqTbgcuzSqmOJw3Q2lQ/hu83FAiEA9O8cLm/xfoVLqB4jtdbuHzi3WL+p2RN+DRGkwpYswVuhY3BhZFkDpAAAAAAAAAAAAAAAAAAAAAAAAAAAAAAAAAAAAAAAAAAAAAAAAAAAAAAAAAAAAAAAAAAAAAAAAAAAAAAAAAAAAAAAAAAAAAAAAAAAAAAAAAAAAAAAAAAAAAAAAAAAAAAAAAAAAAAAAAAAAAAAAAAAAAAAAAAAAAAAAAAAAAAAAAAAAAAAAAAAAAAAAAAAAAAAAAAAAAAAAAAAAAAAAAAAAAAAAAAAAAAAAAAAAAAAAAAAAAAAAAAAAAAAAAAAAAAAAAAAAAAAAAAAAAAAAAAAAAAAAAAAAAAAAAAAAAAAAAAAAAAAAAAAAAAAAAAAAAAAAAAAAAAAAAAAAAAAAAAAAAAAAAAAAAAAAAAAAAAAAAAAAAAAAAAAAAAAAAAAAAAAAAAAAAAAAAAAAAAAAAAAAAAAAAAAAAAAAAAAAAAAAAAAAAAAAAAAAAAAAAAAAAAAAAAAAAAAAAAAAAAAAAAAAAAAAAAAAAAAAAAAAAAAAAAAAAAAAAAAAAAAAAAAAAAAAAAAAAAAAAAAAAAAAAAAAAAAAAAAAAAAAAAAAAAAAAAAAAAAAAAAAAAAAAAAAAAAAAAAAAAAAAAAAAAAAAAAAAAAAAAAAAAAAAAAAAAAAAAAAAAAAAAAAAAAAAAAAAAAAAAAAAAAAAAAAAAAAAAAAAAAAAAAAAAAAAAAAAAAAAAAAAAAAAAAAAAAAAAAAAAAAAAAAAAAAAAAAAAAAAAAAAAAAAAAAAAAAAAAAAAAAAAAAAAAAAAAAAAAAAAAAAAAAAAAAAAAAAAAAAAAAAAAAAAAAAAAAAAAAAAAAAAAAAAAAAAAAAAAAAAAAAAAAAAAAAAAAAAAAAAAAAAAAAAAAAAAAAAAAAAAAAAAAAAAAAAAAAAAAAAAAAAAAAAAAAAAAAAAAAAAAAAAAAAAAAAAAAAAAAAAAAAAAAAAAAAAAAAAAAAAAAAAAAAAAAAAAAAAAAAAAAAAAAAAAAAAAAAAAAAAAAAAAAAAAAAAAAAAAAAAAAAAAAAAAAAAAAAAAAAAAAAAAAAAAAAAAAAAAAAAAAAAAAAAAAAAAAAAAAAAAAAAAAAAAAAAAAAAAAAAAAAAAAAAAAAAAAAAAAAAAAAAAAAAAAAAAAAAAAAAAAAAAAAAAAAAAAAAAAAAAAAAAAAAAAAAAAAAAAAAAAAAAAAAAAAAAAAAAAAAAAAAAAAAAAAAAAAAAAAAAAAAAAAAAAAAAAAAAAAAAAAAAAAAAAAAAAAAAAAA9lhAupEsiLEdFZfngv9/Z2mjSuW0RwZbSek+4TKOcTiVQz+bN6+kmw5HRqy4uCKf9YZVjceV4awPfPsuPH6qrRaE9w==</c2pa:manifest></metadata>
<path transform="translate(0,0)" fill="rgb(23,21,18)" d="M 0 0 L 2048 0 L 2048 2048 L 0 2048 L 0 0 z"/>
<path transform="translate(0,0)" fill="rgb(242,169,59)" d="M 475.14 908.621 C 479.552 912.26 496.96 937.463 501.395 943.501 C 526.717 977.975 551.498 1012.98 576.842 1047.47 C 590.419 1065.94 601.277 1084.24 616.67 1101.57 C 640.416 1102.66 668.736 1102.02 692.767 1102.01 L 831.602 1102.07 C 842.51 1111.35 854.835 1124.89 864.536 1135.46 C 851.53 1152.28 836.913 1168.41 823.36 1184.92 L 489.631 1185.43 C 498.968 1201.39 519.456 1226.11 530.862 1240.85 C 557.31 1274.39 583.193 1308.36 608.499 1342.77 C 702.766 1342 797.038 1341.82 891.308 1342.24 C 897.523 1336.04 907.049 1323.63 912.898 1316.45 L 950.845 1269.77 C 965.66 1251.45 990.857 1223.13 1002.88 1205.07 C 1026.09 1230.52 1048.95 1257.1 1072.22 1282.72 C 1091.9 1304.37 1113.68 1327.91 1132.35 1350.18 C 1133.32 1335.19 1132.76 1313.62 1132.8 1298.08 L 1132.95 1200.02 L 1132.86 909.953 C 1155.28 935.287 1182.39 957.412 1204.66 982.885 C 1205.51 1038.8 1204.93 1096.14 1204.9 1152.1 C 1225.2 1181 1258.89 1213.64 1281.03 1243.24 C 1301.04 1214.46 1332.83 1182.96 1355.31 1153.26 C 1356.15 1128.13 1355.73 1101.72 1355.69 1076.5 L 1355.68 983.809 C 1378.97 960.859 1407.96 932.32 1431.73 910.37 C 1431.08 959.692 1431.78 1010.67 1431.79 1060.1 L 1431.98 1350.14 C 1442.59 1336.22 1462.19 1315.24 1474.2 1301.15 L 1572.97 1186.44 C 1573.37 1230.77 1573.59 1279.68 1572.63 1323.81 C 1563.69 1330.54 1552.16 1336.1 1542.59 1342.13 C 1518.16 1357.52 1492.68 1371.2 1467.93 1385.86 L 1251.74 1514.67 L 1092.92 1609.43 C 1074.75 1620.24 1056.29 1630.52 1038.39 1641.76 C 1033.54 1644.81 1028.7 1647.81 1023.41 1650.05 L 474.976 1323.37 L 475.14 908.621 z"/>
<path transform="translate(0,0)" fill="rgb(242,169,59)" d="M 1022.36 398.892 C 1027.84 398.074 1525.2 694.207 1572.7 721.336 L 1572.64 869.864 C 1554.4 843.353 1530.03 814.221 1510.41 788.354 C 1487.59 758.274 1464.62 727.097 1441.03 697.706 C 1405.23 733.603 1363.11 768.359 1325.82 803.036 C 1311.83 816.053 1295.41 832.183 1280.57 843.71 C 1266.19 830.842 1252.61 817.322 1238.48 804.215 C 1200.48 769.389 1162.88 734.134 1125.68 698.457 C 1111.62 716.377 1094.8 734.81 1079.69 752.048 C 1055.93 779.552 1031.92 806.833 1007.65 833.888 C 993.684 817.548 978.463 797.036 965.247 779.806 L 902.705 698.781 C 806.561 697.558 707.378 698.675 611.161 698.94 C 584.888 735.959 556.127 773.342 528.354 809.216 C 512.385 829.844 492.081 859.864 475.04 878.786 C 474.076 828.804 474.789 772.245 475.268 722.142 C 484.827 715.423 498.553 707.836 508.863 701.789 L 562.446 670.281 L 715.902 579.8 C 746.952 561.903 778.544 542.289 809.505 523.969 L 1022.36 398.892 z"/>
<path transform="translate(0,0)" fill="rgb(242,169,59)" d="M 686.198 857.638 L 834.315 857.781 C 837.632 861.118 840.87 865.213 843.76 868.97 C 862.647 893.531 883.133 917.497 901.256 942.593 C 889.109 943.194 874.825 942.93 862.5 942.957 C 803.079 942.749 743.657 942.916 684.237 943.459 C 673.934 933.812 655.804 914.815 646.564 904.141 C 655.669 892.08 675.344 870.591 686.198 857.638 z"/>
<path transform="translate(0,0)" fill="rgb(69,196,219)" d="M 985.239 989.07 C 1008.51 988.905 1031.79 988.983 1055.06 989.307 C 1055.32 1012.3 1054.76 1036.11 1055.38 1058.96 L 985.407 1058.98 L 985.239 989.07 z"/>
</svg>